<?xml version="1.0" encoding="UTF-8"?>
<svg width="100px" height="100px" viewBox="0 0 100 100" version="1.1" xmlns="http://www.w3.org/2000/svg" xmlns:xlink="http://www.w3.org/1999/xlink">
    <g stroke="none" stroke-width="1" fill="none" fill-rule="evenodd">
        <g fill="#4F46E5">
            <path d="M50,0 C77.6142375,0 100,22.3857625 100,50 C100,77.6142375 77.6142375,100 50,100 C22.3857625,100 0,77.6142375 0,50 C0,22.3857625 22.3857625,0 50,0 Z M50,10 C27.90861,10 10,27.90861 10,50 C10,72.09139 27.90861,90 50,90 C72.09139,90 90,72.09139 90,50 C90,27.90861 72.09139,10 50,10 Z M36.4,38.8 L36.4,61.2 C36.4,62.7463973 35.1463973,64 33.6,64 C32.0536027,64 30.8,62.7463973 30.8,61.2 L30.8,38.8 C30.8,37.2536027 32.0536027,36 33.6,36 C35.1463973,36 36.4,37.2536027 36.4,38.8 Z M69.2,38.8 L69.2,61.2 C69.2,62.7463973 67.9463973,64 66.4,64 C64.8536027,64 63.6,62.7463973 63.6,61.2 L63.6,38.8 C63.6,37.2536027 64.8536027,36 66.4,36 C67.9463973,36 69.2,37.2536027 69.2,38.8 Z"></path>
            <path d="M50,0 C77.6142375,0 100,22.3857625 100,50 C100,77.6142375 77.6142375,100 50,100 C22.3857625,100 0,77.6142375 0,50 C0,22.3857625 22.3857625,0 50,0 Z M50,10 C27.90861,10 10,27.90861 10,50 C10,72.09139 27.90861,90 50,90 C72.09139,90 90,72.09139 90,50 C90,27.90861 72.09139,10 50,10 Z M50,30 C55.5228475,30 60,34.4771525 60,40 C60,45.5228475 55.5228475,50 50,50 C44.4771525,50 40,45.5228475 40,40 C40,34.4771525 44.4771525,30 50,30 Z"></path>
        </g>
    </g>
</svg>